<svg xmlns="http://www.w3.org/2000/svg" xmlns:xlink="http://www.w3.org/1999/xlink" viewBox="0 0 126 81" fill="#fff" fill-rule="evenodd" stroke="#000" stroke-linecap="round" stroke-linejoin="round"><use xlink:href="#A" x=".5" y=".5"/><symbol id="A" overflow="visible"><path d="M64.368 68.501C48.703 68.501 36.02 55.75 36.02 40s12.682-28.501 28.347-28.501c6.949 0 13.175 2.504 18.155 6.492l7.963-8.006C83.536 3.726 74.328 0 64.396 0c-19.4 0-35.528 14.003-39.032 32.489H8.455C2.751 32.489 0 35.983 0 40s3.967 7.511 8.455 7.511h16.91C28.839 65.997 44.997 80 64.396 80c10.453 0 19.892-3.988 26.842-10.742l-7.963-8.006c-5.009 4.483-11.698 7.249-18.908 7.249zM125 40.495L99.143 23.261v9.258H74.299c-.492-.495-.984-1.252-1.506-1.747a13.16 13.16 0 0 0-19.139 0c-5.212 5.24-5.212 14.003 0 19.243s13.928 5.24 19.139 0c.753-.757 1.506-1.514 1.998-2.504h24.351v10.247L125 40.495z" fill="#2a3282" stroke="none"/></symbol></svg>