<svg xmlns="http://www.w3.org/2000/svg" xmlns:xlink="http://www.w3.org/1999/xlink" viewBox="0 0 56 37" fill="#fff" fill-rule="evenodd" stroke="#000" stroke-linecap="round" stroke-linejoin="round"><use xlink:href="#A" x=".5" y=".5"/><symbol id="A" overflow="visible"><g stroke="#fff" stroke-linejoin="miter" fill="#000" stroke-width=".787"><path d="M47.976 35.786V6.292H0v29.494h47.976z"/><path d="M47.976 5.899H0L7.472 0h46.797v29.887l-6.292 5.899V5.899z"/></g><path d="M47.976 5.899L54.268 0z" stroke="none" fill="#000"/><path d="M47.976 5.899L54.268 0" stroke="#fff" stroke-linejoin="miter" stroke-linecap="square" fill="none" stroke-width=".787"/><g stroke="none"><path d="M12.191 19.269v3.539z"/><path d="M7.079 33.033h5.506l6.292-6.292h5.899l6.292 6.292h10.618v-4.326h-8.258l-6.292-6.292h-8.258l-5.899-6.292H7.079v-.787l-2.753 2.36 2.359 2.36v-.787h5.112v3.933H7.079v-.787l-2.359 2.36 2.359 2.36v-.787h4.719v3.932H7.079v-.787l-2.359 2.36 2.359 2.36v-1.18zM40.505 8.652H35l-6.292 6.292h-5.899L16.91 8.652H5.899v4.326h8.258l6.292 6.292h8.258L35 25.562h5.899v.787l2.359-2.36-2.359-2.36v.787h-5.112l.393-3.933h4.326v.787l2.753-2.36-2.359-2.36v.787h-4.719v-3.932h4.326v.787l2.753-2.36-2.359-2.359v1.18z"/></g></symbol></svg>